M48
;GenerationSoftware,Autodesk,EAGLE,9.2.2*%
;CreationDate,2019-12-19T20:31:35Z*%
FMAT,2
ICI,OFF
INCH,TZ,000.0000
T5C0.0320
T4C0.0400
T3C0.0660
T2C0.1102
T1C0.1260
%
G90
M72
T1
X9000Y27000
X8500Y8000
X2000Y6000
X2000Y30500
X51000Y6000
X50000Y24500
T2
X38106Y37795
X43878Y37795
X53500Y28386
X53500Y23622
T3
X4500Y2500
X2500Y2500
X55000Y4500
X55000Y2500
X1000Y34500
X3000Y34500
X16500Y2500
X14500Y2500
X20500Y2500
X18500Y2500
X24500Y2500
X22500Y2500
X28500Y2500
X26500Y2500
X21000Y34500
X23000Y34500
X10500Y2500
X12500Y2500
X27000Y34500
X25000Y34500
X31000Y34500
X29000Y34500
X35000Y34500
X33000Y34500
X55000Y18500
X55000Y20500
X55000Y14500
X55000Y16500
X55000Y10500
X55000Y12500
X55000Y6500
X55000Y8500
X30500Y2500
X32500Y2500
X6500Y2500
X8500Y2500
X42500Y2500
X44500Y2500
X46500Y2500
X48500Y2500
X17000Y34500
X19000Y34500
X13000Y34500
X15000Y34500
X9000Y34500
X11000Y34500
X5000Y34500
X7000Y34500
X46500Y9000
X46500Y7000
X46500Y13000
X46500Y11000
X40500Y2500
X38500Y2500
X36500Y2500
X57000Y34500
X55000Y34500
X53000Y34500
X51000Y34500
X49000Y34500
X47000Y34500
X34500Y2500
T4
X44500Y30709
X37500Y30709
X38500Y30709
X33000Y8000
X34000Y8000
X35000Y8000
X36000Y8000
X37000Y8000
X38000Y8000
X39000Y8000
X32000Y8000
X31000Y27000
X32000Y27000
X33000Y27000
X34000Y27000
X35000Y27000
X36000Y27000
X37000Y27000
X30000Y27000
X24000Y8000
X25000Y8000
X26000Y8000
X27000Y8000
X28000Y8000
X29000Y8000
X30000Y8000
X23000Y8000
X22000Y27000
X23000Y27000
X24000Y27000
X25000Y27000
X26000Y27000
X27000Y27000
X28000Y27000
X21000Y27000
X13400Y27000
X14400Y27000
X15400Y27000
X16400Y27000
X17400Y27000
X18400Y27000
X19400Y27000
X12400Y27000
X41000Y19000
X40000Y19000
X41000Y20000
X40000Y20000
X41000Y21000
X40000Y21000
X41000Y22000
X40000Y22000
X41000Y23000
X40000Y23000
X41000Y24000
X40000Y24000
X41000Y25000
X40000Y25000
X41000Y26000
X40000Y26000
X41000Y11000
X40000Y11000
X41000Y12000
X40000Y12000
X41000Y13000
X40000Y13000
X41000Y14000
X40000Y14000
X41000Y15000
X40000Y15000
X41000Y16000
X40000Y16000
X41000Y17000
X40000Y17000
X41000Y18000
X40000Y18000
X40000Y10000
X41000Y10000
X40000Y27000
X41000Y27000
X16000Y8000
X17000Y8000
X18000Y8000
X19000Y8000
X20000Y8000
X21000Y8000
X11400Y27000
X10400Y27000
X15000Y8000
X14000Y8000
X29000Y17000
X28000Y17000
X29000Y18000
X28000Y18000
X29000Y19000
X28000Y19000
X47000Y23000
X47000Y24000
X47000Y25000
X47000Y26000
X47000Y27000
X47000Y28000
X47000Y29000
X43500Y30709
X39500Y30709
X40500Y30709
X41500Y30709
X42500Y30709
T5
X38000Y6000
X42000Y6000
X33000Y6000
X37000Y6000
X38000Y5000
X42000Y5000
X33000Y5000
X37000Y5000
X51000Y22000
X51000Y21000
X51000Y20000
X51000Y19000
X51000Y18000
X51000Y17000
X51000Y16000
X51000Y15000
X48000Y18000
X48000Y17000
X48000Y19000
X48000Y20000
X48000Y15000
X48000Y16000
X48000Y21000
X48000Y22000
X37500Y32500
X38500Y32500
X49000Y28500
X49000Y27500
X53335Y25790
X52335Y25790
M30