G04 EAGLE Gerber RS-274X export*
G75*
%MOIN*%
%FSLAX34Y34*%
%LPD*%
%INoutline*%
%IPPOS*%
%AMOC8*
5,1,8,0,0,1.08239X$1,22.5*%
G01*
%ADD10C,0.000000*%
%ADD11C,0.010000*%


D10*
X0Y0D02*
X58492Y0D01*
X58492Y39370D01*
X0Y39370D01*
X0Y0D01*
X8370Y27000D02*
X8372Y27050D01*
X8378Y27100D01*
X8388Y27149D01*
X8402Y27197D01*
X8419Y27244D01*
X8440Y27289D01*
X8465Y27333D01*
X8493Y27374D01*
X8525Y27413D01*
X8559Y27450D01*
X8596Y27484D01*
X8636Y27514D01*
X8678Y27541D01*
X8722Y27565D01*
X8768Y27586D01*
X8815Y27602D01*
X8863Y27615D01*
X8913Y27624D01*
X8962Y27629D01*
X9013Y27630D01*
X9063Y27627D01*
X9112Y27620D01*
X9161Y27609D01*
X9209Y27594D01*
X9255Y27576D01*
X9300Y27554D01*
X9343Y27528D01*
X9384Y27499D01*
X9423Y27467D01*
X9459Y27432D01*
X9491Y27394D01*
X9521Y27354D01*
X9548Y27311D01*
X9571Y27267D01*
X9590Y27221D01*
X9606Y27173D01*
X9618Y27124D01*
X9626Y27075D01*
X9630Y27025D01*
X9630Y26975D01*
X9626Y26925D01*
X9618Y26876D01*
X9606Y26827D01*
X9590Y26779D01*
X9571Y26733D01*
X9548Y26689D01*
X9521Y26646D01*
X9491Y26606D01*
X9459Y26568D01*
X9423Y26533D01*
X9384Y26501D01*
X9343Y26472D01*
X9300Y26446D01*
X9255Y26424D01*
X9209Y26406D01*
X9161Y26391D01*
X9112Y26380D01*
X9063Y26373D01*
X9013Y26370D01*
X8962Y26371D01*
X8913Y26376D01*
X8863Y26385D01*
X8815Y26398D01*
X8768Y26414D01*
X8722Y26435D01*
X8678Y26459D01*
X8636Y26486D01*
X8596Y26516D01*
X8559Y26550D01*
X8525Y26587D01*
X8493Y26626D01*
X8465Y26667D01*
X8440Y26711D01*
X8419Y26756D01*
X8402Y26803D01*
X8388Y26851D01*
X8378Y26900D01*
X8372Y26950D01*
X8370Y27000D01*
X7870Y8000D02*
X7872Y8050D01*
X7878Y8100D01*
X7888Y8149D01*
X7902Y8197D01*
X7919Y8244D01*
X7940Y8289D01*
X7965Y8333D01*
X7993Y8374D01*
X8025Y8413D01*
X8059Y8450D01*
X8096Y8484D01*
X8136Y8514D01*
X8178Y8541D01*
X8222Y8565D01*
X8268Y8586D01*
X8315Y8602D01*
X8363Y8615D01*
X8413Y8624D01*
X8462Y8629D01*
X8513Y8630D01*
X8563Y8627D01*
X8612Y8620D01*
X8661Y8609D01*
X8709Y8594D01*
X8755Y8576D01*
X8800Y8554D01*
X8843Y8528D01*
X8884Y8499D01*
X8923Y8467D01*
X8959Y8432D01*
X8991Y8394D01*
X9021Y8354D01*
X9048Y8311D01*
X9071Y8267D01*
X9090Y8221D01*
X9106Y8173D01*
X9118Y8124D01*
X9126Y8075D01*
X9130Y8025D01*
X9130Y7975D01*
X9126Y7925D01*
X9118Y7876D01*
X9106Y7827D01*
X9090Y7779D01*
X9071Y7733D01*
X9048Y7689D01*
X9021Y7646D01*
X8991Y7606D01*
X8959Y7568D01*
X8923Y7533D01*
X8884Y7501D01*
X8843Y7472D01*
X8800Y7446D01*
X8755Y7424D01*
X8709Y7406D01*
X8661Y7391D01*
X8612Y7380D01*
X8563Y7373D01*
X8513Y7370D01*
X8462Y7371D01*
X8413Y7376D01*
X8363Y7385D01*
X8315Y7398D01*
X8268Y7414D01*
X8222Y7435D01*
X8178Y7459D01*
X8136Y7486D01*
X8096Y7516D01*
X8059Y7550D01*
X8025Y7587D01*
X7993Y7626D01*
X7965Y7667D01*
X7940Y7711D01*
X7919Y7756D01*
X7902Y7803D01*
X7888Y7851D01*
X7878Y7900D01*
X7872Y7950D01*
X7870Y8000D01*
X37555Y37795D02*
X37557Y37842D01*
X37563Y37888D01*
X37573Y37934D01*
X37586Y37979D01*
X37604Y38022D01*
X37625Y38064D01*
X37649Y38104D01*
X37677Y38141D01*
X37708Y38176D01*
X37742Y38209D01*
X37778Y38238D01*
X37817Y38264D01*
X37858Y38287D01*
X37901Y38306D01*
X37945Y38322D01*
X37990Y38334D01*
X38036Y38342D01*
X38083Y38346D01*
X38129Y38346D01*
X38176Y38342D01*
X38222Y38334D01*
X38267Y38322D01*
X38311Y38306D01*
X38354Y38287D01*
X38395Y38264D01*
X38434Y38238D01*
X38470Y38209D01*
X38504Y38176D01*
X38535Y38141D01*
X38563Y38104D01*
X38587Y38064D01*
X38608Y38022D01*
X38626Y37979D01*
X38639Y37934D01*
X38649Y37888D01*
X38655Y37842D01*
X38657Y37795D01*
X38655Y37748D01*
X38649Y37702D01*
X38639Y37656D01*
X38626Y37611D01*
X38608Y37568D01*
X38587Y37526D01*
X38563Y37486D01*
X38535Y37449D01*
X38504Y37414D01*
X38470Y37381D01*
X38434Y37352D01*
X38395Y37326D01*
X38354Y37303D01*
X38311Y37284D01*
X38267Y37268D01*
X38222Y37256D01*
X38176Y37248D01*
X38129Y37244D01*
X38083Y37244D01*
X38036Y37248D01*
X37990Y37256D01*
X37945Y37268D01*
X37901Y37284D01*
X37858Y37303D01*
X37817Y37326D01*
X37778Y37352D01*
X37742Y37381D01*
X37708Y37414D01*
X37677Y37449D01*
X37649Y37486D01*
X37625Y37526D01*
X37604Y37568D01*
X37586Y37611D01*
X37573Y37656D01*
X37563Y37702D01*
X37557Y37748D01*
X37555Y37795D01*
X43327Y37795D02*
X43329Y37842D01*
X43335Y37888D01*
X43345Y37934D01*
X43358Y37979D01*
X43376Y38022D01*
X43397Y38064D01*
X43421Y38104D01*
X43449Y38141D01*
X43480Y38176D01*
X43514Y38209D01*
X43550Y38238D01*
X43589Y38264D01*
X43630Y38287D01*
X43673Y38306D01*
X43717Y38322D01*
X43762Y38334D01*
X43808Y38342D01*
X43855Y38346D01*
X43901Y38346D01*
X43948Y38342D01*
X43994Y38334D01*
X44039Y38322D01*
X44083Y38306D01*
X44126Y38287D01*
X44167Y38264D01*
X44206Y38238D01*
X44242Y38209D01*
X44276Y38176D01*
X44307Y38141D01*
X44335Y38104D01*
X44359Y38064D01*
X44380Y38022D01*
X44398Y37979D01*
X44411Y37934D01*
X44421Y37888D01*
X44427Y37842D01*
X44429Y37795D01*
X44427Y37748D01*
X44421Y37702D01*
X44411Y37656D01*
X44398Y37611D01*
X44380Y37568D01*
X44359Y37526D01*
X44335Y37486D01*
X44307Y37449D01*
X44276Y37414D01*
X44242Y37381D01*
X44206Y37352D01*
X44167Y37326D01*
X44126Y37303D01*
X44083Y37284D01*
X44039Y37268D01*
X43994Y37256D01*
X43948Y37248D01*
X43901Y37244D01*
X43855Y37244D01*
X43808Y37248D01*
X43762Y37256D01*
X43717Y37268D01*
X43673Y37284D01*
X43630Y37303D01*
X43589Y37326D01*
X43550Y37352D01*
X43514Y37381D01*
X43480Y37414D01*
X43449Y37449D01*
X43421Y37486D01*
X43397Y37526D01*
X43376Y37568D01*
X43358Y37611D01*
X43345Y37656D01*
X43335Y37702D01*
X43329Y37748D01*
X43327Y37795D01*
X52949Y28386D02*
X52951Y28433D01*
X52957Y28479D01*
X52967Y28525D01*
X52980Y28570D01*
X52998Y28613D01*
X53019Y28655D01*
X53043Y28695D01*
X53071Y28732D01*
X53102Y28767D01*
X53136Y28800D01*
X53172Y28829D01*
X53211Y28855D01*
X53252Y28878D01*
X53295Y28897D01*
X53339Y28913D01*
X53384Y28925D01*
X53430Y28933D01*
X53477Y28937D01*
X53523Y28937D01*
X53570Y28933D01*
X53616Y28925D01*
X53661Y28913D01*
X53705Y28897D01*
X53748Y28878D01*
X53789Y28855D01*
X53828Y28829D01*
X53864Y28800D01*
X53898Y28767D01*
X53929Y28732D01*
X53957Y28695D01*
X53981Y28655D01*
X54002Y28613D01*
X54020Y28570D01*
X54033Y28525D01*
X54043Y28479D01*
X54049Y28433D01*
X54051Y28386D01*
X54049Y28339D01*
X54043Y28293D01*
X54033Y28247D01*
X54020Y28202D01*
X54002Y28159D01*
X53981Y28117D01*
X53957Y28077D01*
X53929Y28040D01*
X53898Y28005D01*
X53864Y27972D01*
X53828Y27943D01*
X53789Y27917D01*
X53748Y27894D01*
X53705Y27875D01*
X53661Y27859D01*
X53616Y27847D01*
X53570Y27839D01*
X53523Y27835D01*
X53477Y27835D01*
X53430Y27839D01*
X53384Y27847D01*
X53339Y27859D01*
X53295Y27875D01*
X53252Y27894D01*
X53211Y27917D01*
X53172Y27943D01*
X53136Y27972D01*
X53102Y28005D01*
X53071Y28040D01*
X53043Y28077D01*
X53019Y28117D01*
X52998Y28159D01*
X52980Y28202D01*
X52967Y28247D01*
X52957Y28293D01*
X52951Y28339D01*
X52949Y28386D01*
X52949Y23622D02*
X52951Y23669D01*
X52957Y23715D01*
X52967Y23761D01*
X52980Y23806D01*
X52998Y23849D01*
X53019Y23891D01*
X53043Y23931D01*
X53071Y23968D01*
X53102Y24003D01*
X53136Y24036D01*
X53172Y24065D01*
X53211Y24091D01*
X53252Y24114D01*
X53295Y24133D01*
X53339Y24149D01*
X53384Y24161D01*
X53430Y24169D01*
X53477Y24173D01*
X53523Y24173D01*
X53570Y24169D01*
X53616Y24161D01*
X53661Y24149D01*
X53705Y24133D01*
X53748Y24114D01*
X53789Y24091D01*
X53828Y24065D01*
X53864Y24036D01*
X53898Y24003D01*
X53929Y23968D01*
X53957Y23931D01*
X53981Y23891D01*
X54002Y23849D01*
X54020Y23806D01*
X54033Y23761D01*
X54043Y23715D01*
X54049Y23669D01*
X54051Y23622D01*
X54049Y23575D01*
X54043Y23529D01*
X54033Y23483D01*
X54020Y23438D01*
X54002Y23395D01*
X53981Y23353D01*
X53957Y23313D01*
X53929Y23276D01*
X53898Y23241D01*
X53864Y23208D01*
X53828Y23179D01*
X53789Y23153D01*
X53748Y23130D01*
X53705Y23111D01*
X53661Y23095D01*
X53616Y23083D01*
X53570Y23075D01*
X53523Y23071D01*
X53477Y23071D01*
X53430Y23075D01*
X53384Y23083D01*
X53339Y23095D01*
X53295Y23111D01*
X53252Y23130D01*
X53211Y23153D01*
X53172Y23179D01*
X53136Y23208D01*
X53102Y23241D01*
X53071Y23276D01*
X53043Y23313D01*
X53019Y23353D01*
X52998Y23395D01*
X52980Y23438D01*
X52967Y23483D01*
X52957Y23529D01*
X52951Y23575D01*
X52949Y23622D01*
X1370Y6000D02*
X1372Y6050D01*
X1378Y6100D01*
X1388Y6149D01*
X1402Y6197D01*
X1419Y6244D01*
X1440Y6289D01*
X1465Y6333D01*
X1493Y6374D01*
X1525Y6413D01*
X1559Y6450D01*
X1596Y6484D01*
X1636Y6514D01*
X1678Y6541D01*
X1722Y6565D01*
X1768Y6586D01*
X1815Y6602D01*
X1863Y6615D01*
X1913Y6624D01*
X1962Y6629D01*
X2013Y6630D01*
X2063Y6627D01*
X2112Y6620D01*
X2161Y6609D01*
X2209Y6594D01*
X2255Y6576D01*
X2300Y6554D01*
X2343Y6528D01*
X2384Y6499D01*
X2423Y6467D01*
X2459Y6432D01*
X2491Y6394D01*
X2521Y6354D01*
X2548Y6311D01*
X2571Y6267D01*
X2590Y6221D01*
X2606Y6173D01*
X2618Y6124D01*
X2626Y6075D01*
X2630Y6025D01*
X2630Y5975D01*
X2626Y5925D01*
X2618Y5876D01*
X2606Y5827D01*
X2590Y5779D01*
X2571Y5733D01*
X2548Y5689D01*
X2521Y5646D01*
X2491Y5606D01*
X2459Y5568D01*
X2423Y5533D01*
X2384Y5501D01*
X2343Y5472D01*
X2300Y5446D01*
X2255Y5424D01*
X2209Y5406D01*
X2161Y5391D01*
X2112Y5380D01*
X2063Y5373D01*
X2013Y5370D01*
X1962Y5371D01*
X1913Y5376D01*
X1863Y5385D01*
X1815Y5398D01*
X1768Y5414D01*
X1722Y5435D01*
X1678Y5459D01*
X1636Y5486D01*
X1596Y5516D01*
X1559Y5550D01*
X1525Y5587D01*
X1493Y5626D01*
X1465Y5667D01*
X1440Y5711D01*
X1419Y5756D01*
X1402Y5803D01*
X1388Y5851D01*
X1378Y5900D01*
X1372Y5950D01*
X1370Y6000D01*
X1370Y30500D02*
X1372Y30550D01*
X1378Y30600D01*
X1388Y30649D01*
X1402Y30697D01*
X1419Y30744D01*
X1440Y30789D01*
X1465Y30833D01*
X1493Y30874D01*
X1525Y30913D01*
X1559Y30950D01*
X1596Y30984D01*
X1636Y31014D01*
X1678Y31041D01*
X1722Y31065D01*
X1768Y31086D01*
X1815Y31102D01*
X1863Y31115D01*
X1913Y31124D01*
X1962Y31129D01*
X2013Y31130D01*
X2063Y31127D01*
X2112Y31120D01*
X2161Y31109D01*
X2209Y31094D01*
X2255Y31076D01*
X2300Y31054D01*
X2343Y31028D01*
X2384Y30999D01*
X2423Y30967D01*
X2459Y30932D01*
X2491Y30894D01*
X2521Y30854D01*
X2548Y30811D01*
X2571Y30767D01*
X2590Y30721D01*
X2606Y30673D01*
X2618Y30624D01*
X2626Y30575D01*
X2630Y30525D01*
X2630Y30475D01*
X2626Y30425D01*
X2618Y30376D01*
X2606Y30327D01*
X2590Y30279D01*
X2571Y30233D01*
X2548Y30189D01*
X2521Y30146D01*
X2491Y30106D01*
X2459Y30068D01*
X2423Y30033D01*
X2384Y30001D01*
X2343Y29972D01*
X2300Y29946D01*
X2255Y29924D01*
X2209Y29906D01*
X2161Y29891D01*
X2112Y29880D01*
X2063Y29873D01*
X2013Y29870D01*
X1962Y29871D01*
X1913Y29876D01*
X1863Y29885D01*
X1815Y29898D01*
X1768Y29914D01*
X1722Y29935D01*
X1678Y29959D01*
X1636Y29986D01*
X1596Y30016D01*
X1559Y30050D01*
X1525Y30087D01*
X1493Y30126D01*
X1465Y30167D01*
X1440Y30211D01*
X1419Y30256D01*
X1402Y30303D01*
X1388Y30351D01*
X1378Y30400D01*
X1372Y30450D01*
X1370Y30500D01*
X50370Y6000D02*
X50372Y6050D01*
X50378Y6100D01*
X50388Y6149D01*
X50402Y6197D01*
X50419Y6244D01*
X50440Y6289D01*
X50465Y6333D01*
X50493Y6374D01*
X50525Y6413D01*
X50559Y6450D01*
X50596Y6484D01*
X50636Y6514D01*
X50678Y6541D01*
X50722Y6565D01*
X50768Y6586D01*
X50815Y6602D01*
X50863Y6615D01*
X50913Y6624D01*
X50962Y6629D01*
X51013Y6630D01*
X51063Y6627D01*
X51112Y6620D01*
X51161Y6609D01*
X51209Y6594D01*
X51255Y6576D01*
X51300Y6554D01*
X51343Y6528D01*
X51384Y6499D01*
X51423Y6467D01*
X51459Y6432D01*
X51491Y6394D01*
X51521Y6354D01*
X51548Y6311D01*
X51571Y6267D01*
X51590Y6221D01*
X51606Y6173D01*
X51618Y6124D01*
X51626Y6075D01*
X51630Y6025D01*
X51630Y5975D01*
X51626Y5925D01*
X51618Y5876D01*
X51606Y5827D01*
X51590Y5779D01*
X51571Y5733D01*
X51548Y5689D01*
X51521Y5646D01*
X51491Y5606D01*
X51459Y5568D01*
X51423Y5533D01*
X51384Y5501D01*
X51343Y5472D01*
X51300Y5446D01*
X51255Y5424D01*
X51209Y5406D01*
X51161Y5391D01*
X51112Y5380D01*
X51063Y5373D01*
X51013Y5370D01*
X50962Y5371D01*
X50913Y5376D01*
X50863Y5385D01*
X50815Y5398D01*
X50768Y5414D01*
X50722Y5435D01*
X50678Y5459D01*
X50636Y5486D01*
X50596Y5516D01*
X50559Y5550D01*
X50525Y5587D01*
X50493Y5626D01*
X50465Y5667D01*
X50440Y5711D01*
X50419Y5756D01*
X50402Y5803D01*
X50388Y5851D01*
X50378Y5900D01*
X50372Y5950D01*
X50370Y6000D01*
X49370Y24500D02*
X49372Y24550D01*
X49378Y24600D01*
X49388Y24649D01*
X49402Y24697D01*
X49419Y24744D01*
X49440Y24789D01*
X49465Y24833D01*
X49493Y24874D01*
X49525Y24913D01*
X49559Y24950D01*
X49596Y24984D01*
X49636Y25014D01*
X49678Y25041D01*
X49722Y25065D01*
X49768Y25086D01*
X49815Y25102D01*
X49863Y25115D01*
X49913Y25124D01*
X49962Y25129D01*
X50013Y25130D01*
X50063Y25127D01*
X50112Y25120D01*
X50161Y25109D01*
X50209Y25094D01*
X50255Y25076D01*
X50300Y25054D01*
X50343Y25028D01*
X50384Y24999D01*
X50423Y24967D01*
X50459Y24932D01*
X50491Y24894D01*
X50521Y24854D01*
X50548Y24811D01*
X50571Y24767D01*
X50590Y24721D01*
X50606Y24673D01*
X50618Y24624D01*
X50626Y24575D01*
X50630Y24525D01*
X50630Y24475D01*
X50626Y24425D01*
X50618Y24376D01*
X50606Y24327D01*
X50590Y24279D01*
X50571Y24233D01*
X50548Y24189D01*
X50521Y24146D01*
X50491Y24106D01*
X50459Y24068D01*
X50423Y24033D01*
X50384Y24001D01*
X50343Y23972D01*
X50300Y23946D01*
X50255Y23924D01*
X50209Y23906D01*
X50161Y23891D01*
X50112Y23880D01*
X50063Y23873D01*
X50013Y23870D01*
X49962Y23871D01*
X49913Y23876D01*
X49863Y23885D01*
X49815Y23898D01*
X49768Y23914D01*
X49722Y23935D01*
X49678Y23959D01*
X49636Y23986D01*
X49596Y24016D01*
X49559Y24050D01*
X49525Y24087D01*
X49493Y24126D01*
X49465Y24167D01*
X49440Y24211D01*
X49419Y24256D01*
X49402Y24303D01*
X49388Y24351D01*
X49378Y24400D01*
X49372Y24450D01*
X49370Y24500D01*
D11*
X0Y0D02*
X58492Y0D01*
X58492Y39370D01*
X0Y39370D01*
X0Y0D01*
M02*
